<svg xmlns="http://www.w3.org/2000/svg" viewBox="0 0 1600 900" preserveAspectRatio="xMidYMid slice">
  <defs>
    <radialGradient id="g1" cx="30%" cy="40%" r="80%">
      <stop offset="0%" stop-color="#8B5A2B"/>
      <stop offset="60%" stop-color="#4A2C1A"/>
      <stop offset="100%" stop-color="#2A1810"/>
    </radialGradient>
    <pattern id="beans" x="0" y="0" width="160" height="160" patternUnits="userSpaceOnUse">
      <ellipse cx="40" cy="60" rx="22" ry="14" fill="#3A2014" opacity="0.55" transform="rotate(25 40 60)"/>
      <path d="M 22 60 Q 40 56 58 60" stroke="#1A0F08" stroke-width="1.5" fill="none" opacity="0.6" transform="rotate(25 40 60)"/>
      <ellipse cx="120" cy="100" rx="20" ry="13" fill="#4A2C1A" opacity="0.6" transform="rotate(-15 120 100)"/>
      <path d="M 104 100 Q 120 96 136 100" stroke="#1A0F08" stroke-width="1.5" fill="none" opacity="0.6" transform="rotate(-15 120 100)"/>
      <ellipse cx="80" cy="130" rx="18" ry="12" fill="#2E1A10" opacity="0.5" transform="rotate(45 80 130)"/>
      <path d="M 66 130 Q 80 127 94 130" stroke="#1A0F08" stroke-width="1.2" fill="none" opacity="0.55" transform="rotate(45 80 130)"/>
    </pattern>
  </defs>
  <rect width="1600" height="900" fill="url(#g1)"/>
  <rect width="1600" height="900" fill="url(#beans)"/>
  <rect width="1600" height="900" fill="#2A1810" opacity="0.25"/>
</svg>
